<svg width="800" height="600" xmlns="http://www.w3.org/2000/svg">
  <!-- 背景 -->
  <rect width="800" height="600" fill="#2c3e50" />
  
  <!-- 网格线 -->
  <g stroke="#34495e" stroke-width="1" opacity="0.3">
    <!-- 水平线 -->
    <line x1="0" y1="50" x2="800" y2="50" />
    <line x1="0" y1="100" x2="800" y2="100" />
    <line x1="0" y1="150" x2="800" y2="150" />
    <line x1="0" y1="200" x2="800" y2="200" />
    <line x1="0" y1="250" x2="800" y2="250" />
    <line x1="0" y1="300" x2="800" y2="300" />
    <line x1="0" y1="350" x2="800" y2="350" />
    <line x1="0" y1="400" x2="800" y2="400" />
    <line x1="0" y1="450" x2="800" y2="450" />
    <line x1="0" y1="500" x2="800" y2="500" />
    <line x1="0" y1="550" x2="800" y2="550" />
    
    <!-- 垂直线 -->
    <line x1="50" y1="0" x2="50" y2="600" />
    <line x1="100" y1="0" x2="100" y2="600" />
    <line x1="150" y1="0" x2="150" y2="600" />
    <line x1="200" y1="0" x2="200" y2="600" />
    <line x1="250" y1="0" x2="250" y2="600" />
    <line x1="300" y1="0" x2="300" y2="600" />
    <line x1="350" y1="0" x2="350" y2="600" />
    <line x1="400" y1="0" x2="400" y2="600" />
    <line x1="450" y1="0" x2="450" y2="600" />
    <line x1="500" y1="0" x2="500" y2="600" />
    <line x1="550" y1="0" x2="550" y2="600" />
    <line x1="600" y1="0" x2="600" y2="600" />
    <line x1="650" y1="0" x2="650" y2="600" />
    <line x1="700" y1="0" x2="700" y2="600" />
    <line x1="750" y1="0" x2="750" y2="600" />
  </g>
  
  <!-- 随机障碍物 -->
  <rect x="200" y="150" width="50" height="50" fill="#7f8c8d" rx="5" ry="5" />
  <rect x="550" y="400" width="50" height="50" fill="#7f8c8d" rx="5" ry="5" />
  <rect x="350" y="250" width="30" height="100" fill="#7f8c8d" rx="5" ry="5" />
  <rect x="650" y="150" width="30" height="100" fill="#7f8c8d" rx="5" ry="5" />
  <rect x="150" y="450" width="100" height="30" fill="#7f8c8d" rx="5" ry="5" />
</svg>